<svg width="14" height="16" viewBox="0 0 14 16" fill="none" xmlns="http://www.w3.org/2000/svg">
<path d="M3.38505 10.3217C2.44187 10.8833 -0.0310903 12.0301 1.47511 13.465C2.21087 14.166 3.03033 14.6673 4.06058 14.6673H9.93942C10.9697 14.6673 11.7891 14.166 12.5249 13.465C14.0311 12.0301 11.5581 10.8833 10.615 10.3217C8.40321 9.00474 5.59679 9.00474 3.38505 10.3217Z" stroke="currentColor" stroke-linecap="round" stroke-linejoin="round"/>
<path d="M3.38505 10.3217C2.44187 10.8833 -0.0310903 12.0301 1.47511 13.465C2.21087 14.166 3.03033 14.6673 4.06058 14.6673H9.93942C10.9697 14.6673 11.7891 14.166 12.5249 13.465C14.0311 12.0301 11.5581 10.8833 10.615 10.3217C8.40321 9.00474 5.59679 9.00474 3.38505 10.3217Z" stroke="currentColor" stroke-linecap="round" stroke-linejoin="round"/>
<path d="M10 4.33398C10 5.99084 8.65685 7.33398 7 7.33398C5.34315 7.33398 4 5.99084 4 4.33398C4 2.67713 5.34315 1.33398 7 1.33398C8.65685 1.33398 10 2.67713 10 4.33398Z" stroke="currentColor"/>
<path d="M10 4.33398C10 5.99084 8.65685 7.33398 7 7.33398C5.34315 7.33398 4 5.99084 4 4.33398C4 2.67713 5.34315 1.33398 7 1.33398C8.65685 1.33398 10 2.67713 10 4.33398Z" stroke="currentColor"/>
<path d="M10 4.33398C10 5.99084 8.65685 7.33398 7 7.33398C5.34315 7.33398 4 5.99084 4 4.33398C4 2.67713 5.34315 1.33398 7 1.33398C8.65685 1.33398 10 2.67713 10 4.33398Z" stroke="currentColor"/>
</svg>
