<svg width="14" height="12" viewBox="0 0 14 12" fill="none" xmlns="http://www.w3.org/2000/svg">
<path d="M13 6.00065L5 6.00065M13 2.00065L5 2.00065M13 10.0007L5 10.0007M2.33333 6.00065C2.33333 6.36884 2.03486 6.66732 1.66667 6.66732C1.29848 6.66732 1 6.36884 1 6.00065C1 5.63246 1.29848 5.33398 1.66667 5.33398C2.03486 5.33398 2.33333 5.63246 2.33333 6.00065ZM2.33333 2.00065C2.33333 2.36884 2.03486 2.66732 1.66667 2.66732C1.29848 2.66732 1 2.36884 1 2.00065C1 1.63246 1.29848 1.33398 1.66667 1.33398C2.03486 1.33398 2.33333 1.63246 2.33333 2.00065ZM2.33333 10.0007C2.33333 10.3688 2.03486 10.6673 1.66667 10.6673C1.29848 10.6673 1 10.3688 1 10.0007C1 9.63246 1.29848 9.33398 1.66667 9.33398C2.03486 9.33398 2.33333 9.63246 2.33333 10.0007Z" stroke="currentColor" stroke-linecap="round" stroke-linejoin="round"/>
</svg>
