<svg width="16" height="16" viewBox="0 0 16 16" fill="none" xmlns="http://www.w3.org/2000/svg">
<path d="M14.3996 15.2008C14.3996 14.0843 14.3996 13.5261 14.2618 13.0719C13.9516 12.0491 13.1512 11.2488 12.1285 10.9386C11.6743 10.8008 11.1161 10.8008 9.99961 10.8008H5.99961C4.88316 10.8008 4.32493 10.8008 3.8707 10.9386C2.84797 11.2488 2.04764 12.0491 1.7374 13.0719C1.59961 13.5261 1.59961 14.0843 1.59961 15.2008M11.5996 4.40078C11.5996 6.38901 9.98783 8.00078 7.99961 8.00078C6.01138 8.00078 4.39961 6.38901 4.39961 4.40078C4.39961 2.41256 6.01138 0.800781 7.99961 0.800781C9.98783 0.800781 11.5996 2.41256 11.5996 4.40078Z" stroke="currentColor" stroke-width="1.6" stroke-linecap="round" stroke-linejoin="round"/>
</svg>
