<svg width="20" height="21" viewBox="0 0 20 21" fill="none" xmlns="http://www.w3.org/2000/svg">
<path d="M17.5 8.83268H2.5M13.3333 2.16602V5.49935M6.66667 2.16602V5.49935M6.5 18.8327H13.5C14.9001 18.8327 15.6002 18.8327 16.135 18.5602C16.6054 18.3205 16.9878 17.9381 17.2275 17.4677C17.5 16.9329 17.5 16.2328 17.5 14.8327V7.83268C17.5 6.43255 17.5 5.73249 17.2275 5.19771C16.9878 4.7273 16.6054 4.34485 16.135 4.10517C15.6002 3.83268 14.9001 3.83268 13.5 3.83268H6.5C5.09987 3.83268 4.3998 3.83268 3.86502 4.10517C3.39462 4.34485 3.01217 4.7273 2.77248 5.19771C2.5 5.73249 2.5 6.43255 2.5 7.83268V14.8327C2.5 16.2328 2.5 16.9329 2.77248 17.4677C3.01217 17.9381 3.39462 18.3205 3.86502 18.5602C4.3998 18.8327 5.09987 18.8327 6.5 18.8327Z" stroke="currentColor" stroke-width="1.66667" stroke-linecap="round" stroke-linejoin="round"/>
</svg>
