<svg width="16" height="12" viewBox="0 0 16 12" fill="none" xmlns="http://www.w3.org/2000/svg">
<path d="M7.00065 11.3333H9.00065C11.5064 11.3333 12.7592 11.3333 13.5957 10.6728C13.7295 10.5671 13.8532 10.4506 13.9655 10.3247C14.6673 9.53748 14.6673 8.35832 14.6673 6C14.6673 5.21125 14.6673 4.5544 14.6411 4H1.36024C1.33398 4.5544 1.33398 5.21125 1.33398 6C1.33398 8.35832 1.33398 9.53748 2.03585 10.3247C2.14811 10.4506 2.27184 10.5671 2.40562 10.6728C3.24207 11.3333 4.49493 11.3333 7.00065 11.3333Z" stroke="#808080" stroke-linecap="round" stroke-linejoin="round"/>
<path d="M1.33398 5.99935C1.33398 3.64103 1.33398 2.46186 2.03585 1.67462C2.14811 1.5487 2.27184 1.43225 2.40562 1.3266C3.24207 0.666016 4.49493 0.666016 7.00065 0.666016H9.00065C11.5064 0.666016 12.7592 0.666016 13.5957 1.3266C13.7295 1.43225 13.8532 1.5487 13.9655 1.67462C14.6673 2.46186 14.6673 3.64103 14.6673 5.99935C14.6673 8.35767 14.6673 9.53683 13.9655 10.3241C13.8532 10.45 13.7295 10.5664 13.5957 10.6721C12.7592 11.3327 11.5064 11.3327 9.00065 11.3327H7.00065C4.49493 11.3327 3.24207 11.3327 2.40562 10.6721C2.27184 10.5664 2.14811 10.45 2.03585 10.3241C1.33398 9.53683 1.33398 8.35767 1.33398 5.99935Z" stroke="currentColor" stroke-linecap="round" stroke-linejoin="round"/>
<path d="M6.66797 8.66602H7.66797" stroke="currentColor" stroke-miterlimit="10" stroke-linecap="round" stroke-linejoin="round"/>
<path d="M9.66797 8.66602L12.0013 8.66602" stroke="currentColor" stroke-miterlimit="10" stroke-linecap="round" stroke-linejoin="round"/>
<path d="M1.33398 4H14.6673" stroke="currentColor" stroke-linejoin="round"/>
</svg>
