<svg width="16" height="12" viewBox="0 0 16 12" fill="none" xmlns="http://www.w3.org/2000/svg">
<path d="M7.33398 11.3327H7.00065C4.49493 11.3327 3.24207 11.3327 2.40562 10.6721C2.27184 10.5664 2.14811 10.45 2.03585 10.3241C1.33398 9.53683 1.33398 8.35767 1.33398 5.99935C1.33398 3.64103 1.33398 2.46186 2.03585 1.67462C2.14811 1.5487 2.27184 1.43225 2.40562 1.3266C3.24207 0.666016 4.49493 0.666016 7.00065 0.666016H9.00065C11.5064 0.666016 12.7592 0.666016 13.5957 1.3266C13.7295 1.43225 13.8532 1.5487 13.9655 1.67462C14.5978 2.38391 14.6604 3.41134 14.6666 5.33268" stroke="currentColor" stroke-linecap="round" stroke-linejoin="round"/>
<path d="M1.33398 4H14.6673" stroke="currentColor" stroke-linejoin="round"/>
<path d="M9.33398 9.9987C9.33398 9.9987 10.0007 9.9987 10.6673 11.332C10.6673 11.332 12.785 7.9987 14.6673 7.33203" stroke="currentColor" stroke-linecap="round" stroke-linejoin="round"/>
</svg>
