<svg width="14" height="14" viewBox="0 0 14 14" fill="none" xmlns="http://www.w3.org/2000/svg">
<path d="M0.666016 6.99935C0.666016 4.01379 0.666016 2.52101 1.59351 1.59351C2.52101 0.666016 4.01379 0.666016 6.99935 0.666016C9.98491 0.666016 11.4777 0.666016 12.4052 1.59351C13.3327 2.52101 13.3327 4.01379 13.3327 6.99935C13.3327 9.98491 13.3327 11.4777 12.4052 12.4052C11.4777 13.3327 9.98491 13.3327 6.99935 13.3327C4.01379 13.3327 2.52101 13.3327 1.59351 12.4052C0.666016 11.4777 0.666016 9.98491 0.666016 6.99935Z" stroke="currentColor" stroke-linejoin="round"/>
<path d="M4.66602 5.66602C4.11373 5.66602 3.66602 5.2183 3.66602 4.66602C3.66602 4.11373 4.11373 3.66602 4.66602 3.66602C5.2183 3.66602 5.66602 4.11373 5.66602 4.66602C5.66602 5.2183 5.2183 5.66602 4.66602 5.66602Z" stroke="currentColor"/>
<path d="M9.33203 10.332C9.88432 10.332 10.332 9.88432 10.332 9.33203C10.332 8.77975 9.88432 8.33203 9.33203 8.33203C8.77975 8.33203 8.33203 8.77975 8.33203 9.33203C8.33203 9.88432 8.77975 10.332 9.33203 10.332Z" stroke="currentColor"/>
<path d="M5.66536 4.66602L10.332 4.66602" stroke="currentColor" stroke-linecap="round"/>
<path d="M8.33268 9.33203L3.66602 9.33203" stroke="currentColor" stroke-linecap="round"/>
</svg>
