<svg width="14" height="16" viewBox="0 0 14 16" fill="none" xmlns="http://www.w3.org/2000/svg">
<path d="M7.66602 12.0007C7.66602 12.0007 8.33268 12.0007 8.99935 13.334C8.99935 13.334 11.117 10.0007 12.9993 9.33398" stroke="currentColor" stroke-linecap="round" stroke-linejoin="round"/>
<path d="M6.33398 14.668H6.15217C3.97803 14.668 2.89096 14.668 2.13603 14.1361C1.91973 13.9837 1.72771 13.803 1.56579 13.5994C1.00065 12.8889 1.00065 11.8657 1.00065 9.81948V8.12251C1.00065 6.14707 1.00065 5.15934 1.31328 4.37047C1.81586 3.10225 2.87874 2.10189 4.22623 1.62887C5.0644 1.33464 6.11386 1.33464 8.21277 1.33464C9.41215 1.33464 10.0118 1.33463 10.4908 1.50277C11.2608 1.77307 11.8682 2.3447 12.1553 3.0694C12.334 3.52018 12.334 4.0846 12.334 5.21342V6.66797" stroke="currentColor" stroke-linecap="round" stroke-linejoin="round"/>
<path d="M0.999349 8C0.999349 6.7727 1.99427 5.77778 3.22157 5.77778C3.66543 5.77778 4.18871 5.85555 4.62026 5.73992C5.00369 5.63718 5.30319 5.33768 5.40593 4.95424C5.52157 4.52269 5.44379 3.99941 5.44379 3.55556C5.44379 2.32826 6.43872 1.33333 7.66602 1.33333" stroke="currentColor" stroke-linecap="round" stroke-linejoin="round"/>
</svg>
