<svg width="20" height="21" viewBox="0 0 20 21" fill="none" xmlns="http://www.w3.org/2000/svg">
<path d="M16.6673 9.24935V6.16602C16.6673 4.76588 16.6673 4.06582 16.3948 3.53104C16.1552 3.06063 15.7727 2.67818 15.3023 2.4385C14.7675 2.16602 14.0674 2.16602 12.6673 2.16602H7.33398C5.93385 2.16602 5.23379 2.16602 4.69901 2.4385C4.2286 2.67818 3.84615 3.06063 3.60647 3.53104C3.33398 4.06582 3.33398 4.76588 3.33398 6.16602V14.8327C3.33398 16.2328 3.33398 16.9329 3.60647 17.4677C3.84615 17.9381 4.2286 18.3205 4.69901 18.5602C5.23379 18.8327 5.93385 18.8327 7.33398 18.8327H10.0007M11.6673 9.66602H6.66732M8.33398 12.9993H6.66732M13.334 6.33268H6.66732M15.0007 17.9993V12.9993M12.5007 15.4993H17.5007" stroke="currentColor" stroke-width="1.66667" stroke-linecap="round" stroke-linejoin="round"/>
</svg>
