<svg width="16" height="12" viewBox="0 0 16 12" fill="none" xmlns="http://www.w3.org/2000/svg">
<path d="M2.7167 3.28571C3.49215 2.16409 3.87987 1.60327 4.43597 1.30164C4.99208 1 5.63828 1 6.93069 1H10.0583C11.9078 1 12.8325 1 13.4968 1.48152C13.7844 1.68997 14.0313 1.95783 14.2235 2.2698C14.6673 2.99044 14.6673 3.99363 14.6673 6C14.6673 8.00637 14.6673 9.00956 14.2235 9.7302C14.0313 10.0422 13.7844 10.31 13.4968 10.5185C12.8325 11 11.9078 11 10.0583 11H6.93069C5.63828 11 4.99208 11 4.43597 10.6984C3.87987 10.3967 3.49215 9.83591 2.7167 8.71429L2.61794 8.57143C1.76197 7.33333 1.33398 6.71429 1.33398 6C1.33398 5.28571 1.76197 4.66667 2.61794 3.42857L2.7167 3.28571Z" stroke="currentColor"/>
<path d="M5.99987 6H6.00586" stroke="currentColor" stroke-linecap="round" stroke-linejoin="round"/>
<path d="M8.66784 6H8.67383" stroke="currentColor" stroke-linecap="round" stroke-linejoin="round"/>
<path d="M11.3339 6H11.3398" stroke="currentColor" stroke-linecap="round" stroke-linejoin="round"/>
</svg>
