<svg width="16" height="12" viewBox="0 0 16 12" fill="none" xmlns="http://www.w3.org/2000/svg">
<path d="M13.8494 10C14.3489 10 14.7462 9.68564 15.103 9.2461C15.8333 8.3463 14.6342 7.62723 14.1769 7.27507C13.712 6.91708 13.1929 6.71428 12.6667 6.66667M12 5.33333C12.9205 5.33333 13.6667 4.58714 13.6667 3.66667C13.6667 2.74619 12.9205 2 12 2" stroke="currentColor" stroke-linecap="round"/>
<path d="M2.14999 10C1.65045 10 1.25313 9.68564 0.896379 9.2461C0.166075 8.3463 1.36513 7.62723 1.82245 7.27507C2.28733 6.91708 2.8064 6.71428 3.33268 6.66667M3.66602 5.33333C2.74554 5.33333 1.99935 4.58714 1.99935 3.66667C1.99935 2.74619 2.74554 2 3.66602 2" stroke="currentColor" stroke-linecap="round"/>
<path d="M5.38855 8.07282C4.70737 8.49403 2.92134 9.35409 4.00915 10.4303C4.54054 10.956 5.13236 11.332 5.87643 11.332H10.1223C10.8663 11.332 11.4582 10.956 11.9895 10.4303C13.0774 9.35409 11.2913 8.49403 10.6101 8.07282C9.01278 7.0851 6.98592 7.0851 5.38855 8.07282Z" stroke="currentColor" stroke-linecap="round" stroke-linejoin="round"/>
<path d="M10.3327 2.99935C10.3327 4.28801 9.28801 5.33268 7.99935 5.33268C6.71068 5.33268 5.66602 4.28801 5.66602 2.99935C5.66602 1.71068 6.71068 0.666016 7.99935 0.666016C9.28801 0.666016 10.3327 1.71068 10.3327 2.99935Z" stroke="currentColor"/>
</svg>
